<svg version="1.1" xmlns="http://www.w3.org/2000/svg" style="display: block;" viewBox="0 0 2048 2048" width="1024" height="1024" preserveAspectRatio="none" xmlns:c2pa="http://c2pa.org/manifest"><metadata><c2pa:manifest>AAAzs2p1bWIAAAAeanVtZGMycGEAEQAQgAAAqgA4m3EDYzJwYQAAADONanVtYgAAAEdqdW1kYzJtYQARABCAAACqADibcQN1cm46YzJwYTpiMDU3NzViNC1kZmNiLTQxZjYtYjI2YS1jMmE3YTE1Yjc5Y2IAAAAB4mp1bWIAAAApanVtZGMyYXMAEQAQgAAAqgA4m3EDYzJwYS5hc3NlcnRpb25zAAAAAO1qdW1iAAAAQWp1bWRjYm9yABEAEIAAAKoAOJtxE2MycGEuYWN0aW9ucy52MgAAAAAYYzJzaM9BDSQpb6Xv0n4ou4RjcMkAAACkY2JvcqFnYWN0aW9uc4GjZmFjdGlvbmxjMnBhLmNyZWF0ZWRxZGlnaXRhbFNvdXJjZVR5cGV4Rmh0dHA6Ly9jdi5pcHRjLm9yZy9uZXdzY29kZXMvZGlnaXRhbHNvdXJjZXR5cGUvdHJhaW5lZEFsZ29yaXRobWljTWVkaWFrZGVzY3JpcHRpb252Q3JlYXRlZCBieSBSZWNyYWZ0IEFJLgAAAMRqdW1iAAAAQGp1bWRjYm9yABEAEIAAAKoAOJtxE2MycGEuaGFzaC5kYXRhAAAAABhjMnNoSBynZkCheJIuhDo07vP8+AAAAHxjYm9ypWpleGNsdXNpb25zgaJlc3RhcnQY22ZsZW5ndGgZRPBkbmFtZW5qdW1iZiBtYW5pZmVzdGNhbGdmc2hhMjU2ZGhhc2hYIB77aBhtdjJOr2wPqIHg/U3CaJ+NdrZeDWoD1uFRyB6CY3BhZEkAAAAAAAAAAAAAAAI0anVtYgAAACdqdW1kYzJjbAARABCAAACqADibcQNjMnBhLmNsYWltLnYyAAAAAgVjYm9ypmppbnN0YW5jZUlEeCx4bXA6aWlkOjQ2MjIxNjM2LTJhNDctNDg0Ny1iMTQzLThmMGEzNGNjNGU1ZXRjbGFpbV9nZW5lcmF0b3JfaW5mb6NkbmFtZWpyZWNyYWZ0LmFpZ3ZlcnNpb254KDgxY2U4MmUyYzVjM2NiZmJlOGM2ZmJlMTc5ZDVmOGQ5MWM0MDljZTF3b3JnLmNvbnRlbnRhdXRoLmMycGFfcnNmMC45MC43aXNpZ25hdHVyZXhNc2VsZiNqdW1iZj0vYzJwYS91cm46YzJwYTpiMDU3NzViNC1kZmNiLTQxZjYtYjI2YS1jMmE3YTE1Yjc5Y2IvYzJwYS5zaWduYXR1cmVyY3JlYXRlZF9hc3NlcnRpb25zgqJjdXJseCpzZWxmI2p1bWJmPWMycGEuYXNzZXJ0aW9ucy9jMnBhLmFjdGlvbnMudjJkaGFzaFggnbELDwiW/GqjSNfVJyG7Qv67DUtoQM7GkZMjszQTyquiY3VybHgpc2VsZiNqdW1iZj1jMnBhLmFzc2VydGlvbnMvYzJwYS5oYXNoLmRhdGFkaGFzaFggilpt1xKsF9FuUENLwDLETklbEgNmvwadJxSJajzZPVtoZGM6dGl0bGV4GlJlY3JhZnQgQUkgR2VuZXJhdGVkIEltYWdlY2FsZ2ZzaGEyNTYAAC8oanVtYgAAAChqdW1kYzJjcwARABCAAACqADibcQNjMnBhLnNpZ25hdHVyZQAAAC74Y2JvctKEWQPsogEmGCGCWQH0MIIB8DCCAZWgAwIBAgIUJcFH1Va4pZJDhzepwEtzPPNj2YMwCgYIKoZIzj0EAwIwQTELMAkGA1UEBhMCVVMxEzARBgNVBAoMClJlY3JhZnQgQUkxHTAbBgNVBAMMFFJlY3JhZnQgQzJQQSBSb290IENBMB4XDTI2MDkxMDE2NTIzNFoXDTI3MDkxMDE2NTIzNFowNzELMAkGA1UEBhMCVVMxEzARBgNVBAoMClJlY3JhZnQgQUkxEzARBgNVBAMMCnJlY3JhZnQuYWkwWTATBgcqhkjOPQIBBggqhkjOPQMBBwNCAASoOPdqG3YmNRdGd+dltfh1ikcE/nkLm8YK10H29taFa8iegusHYB1678yl5Bs18hLaV/Fhd+Ni32xAlnHdbimFo3UwczAMBgNVHRMBAf8EAjAAMA4GA1UdDwEB/wQEAwIGwDATBgNVHSUEDDAKBggrBgEFBQcDBDAdBgNVHQ4EFgQUgVwhvbEXPSSgCubOfUHxCtuoVAQwHwYDVR0jBBgwFoAUc9yF+sfWlRHeWv2Iucaec5jwdAgwCgYIKoZIzj0EAwIDSQAwRgIhAJltDpQN+vbXITLxb+8BNwSL6/5WktO4Sevkb0VXjtfWAiEAqhoz7z/sN32NxdnnZsQVTeu3P7CgGtJdXFx283fp08RZAewwggHoMIIBjaADAgECAhQAydo/NKOQWWu/4V5FktVQHX7jTDAKBggqhkjOPQQDAjBBMQswCQYDVQQGEwJVUzETMBEGA1UECgwKUmVjcmFmdCBBSTEdMBsGA1UEAwwUUmVjcmFmdCBDMlBBIFJvb3QgQ0EwHhcNMjYwOTEwMTY1MjM0WhcNMzYwOTA3MTY1MjM0WjBBMQswCQYDVQQGEwJVUzETMBEGA1UECgwKUmVjcmFmdCBBSTEdMBsGA1UEAwwUUmVjcmFmdCBDMlBBIFJvb3QgQ0EwWTATBgcqhkjOPQIBBggqhkjOPQMBBwNCAAQbQ+eF6fkpnHhTwrMxSBLh/JhROWkzsC8L8jN1r1Rlf8oECvzEFk3WujloPtNs3PLADriqR5rGtd+8giFuiTLno2MwYTAfBgNVHSMEGDAWgBRz3IX6x9aVEd5a/Yi5xp5zmPB0CDAPBgNVHRMBAf8EBTADAQH/MA4GA1UdDwEB/wQEAwIBhjAdBgNVHQ4EFgQUc9yF+sfWlRHeWv2Iucaec5jwdAgwCgYIKoZIzj0EAwIDSQAwRgIhAND2Z+xryBRnMbxk8eAzMcAq8bzl0rfA9Y2z7q5QoEUeAiEA6ZbI3e47h5clRZaARSOOotKXsK/YQMWC3vj91d3bmlOhY3BhZFkqtAAAAAAAAAAAAAAAAAAAAAAAAAAAAAAAAAAAAAAAAAAAAAAAAAAAAAAAAAAAAAAAAAAAAAAAAAAAAAAAAAAAAAAAAAAAAAAAAAAAAAAAAAAAAAAAAAAAAAAAAAAAAAAAAAAAAAAAAAAAAAAAAAAAAAAAAAAAAAAAAAAAAAAAAAAAAAAAAAAAAAAAAAAAAAAAAAAAAAAAAAAAAAAAAAAAAAAAAAAAAAAAAAAAAAAAAAAAAAAAAAAAAAAAAAAAAAAAAAAAAAAAAAAAAAAAAAAAAAAAAAAAAAAAAAAAAAAAAAAAAAAAAAAAAAAAAAAAAAAAAAAAAAAAAAAAAAAAAAAAAAAAAAAAAAAAAAAAAAAAAAAAAAAAAAAAAAAAAAAAAAAAAAAAAAAAAAAAAAAAAAAAAAAAAAAAAAAAAAAAAAAAAAAAAAAAAAAAAAAAAAAAAAAAAAAAAAAAAAAAAAAAAAAAAAAAAAAAAAAAAAAAAAAAAAAAAAAAAAAAAAAAAAAAAAAAAAAAAAAAAAAAAAAAAAAAAAAAAAAAAAAAAAAAAAAAAAAAAAAAAAAAAAAAAAAAAAAAAAAAAAAAAAAAAAAAAAAAAAAAAAAAAAAAAAAAAAAAAAAAAAAAAAAAAAAAAAAAAAAAAAAAAAAAAAAAAAAAAAAAAAAAAAAAAAAAAAAAAAAAAAAAAAAAAAAAAAAAAAAAAAAAAAAAAAAAAAAAAAAAAAAAAAAAAAAAAAAAAAAAAAAAAAAAAAAAAAAAAAAAAAAAAAAAAAAAAAAAAAAAAAAAAAAAAAAAAAAAAAAAAAAAAAAAAAAAAAAAAAAAAAAAAAAAAAAAAAAAAAAAAAAAAAAAAAAAAAAAAAAAAAAAAAAAAAAAAAAAAAAAAAAAAAAAAAAAAAAAAAAAAAAAAAAAAAAAAAAAAAAAAAAAAAAAAAAAAAAAAAAAAAAAAAAAAAAAAAAAAAAAAAAAAAAAAAAAAAAAAAAAAAAAAAAAAAAAAAAAAAAAAAAAAAAAAAAAAAAAAAAAAAAAAAAAAAAAAAAAAAAAAAAAAAAAAAAAAAAAAAAAAAAAAAAAAAAAAAAAAAAAAAAAAAAAAAAAAAAAAAAAAAAAAAAAAAAAAAAAAAAAAAAAAAAAAAAAAAAAAAAAAAAAAAAAAAAAAAAAAAAAAAAAAAAAAAAAAAAAAAAAAAAAAAAAAAAAAAAAAAAAAAAAAAAAAAAAAAAAAAAAAAAAAAAAAAAAAAAAAAAAAAAAAAAAAAAAAAAAAAAAAAAAAAAAAAAAAAAAAAAAAAAAAAAAAAAAAAAAAAAAAAAAAAAAAAAAAAAAAAAAAAAAAAAAAAAAAAAAAAAAAAAAAAAAAAAAAAAAAAAAAAAAAAAAAAAAAAAAAAAAAAAAAAAAAAAAAAAAAAAAAAAAAAAAAAAAAAAAAAAAAAAAAAAAAAAAAAAAAAAAAAAAAAAAAAAAAAAAAAAAAAAAAAAAAAAAAAAAAAAAAAAAAAAAAAAAAAAAAAAAAAAAAAAAAAAAAAAAAAAAAAAAAAAAAAAAAAAAAAAAAAAAAAAAAAAAAAAAAAAAAAAAAAAAAAAAAAAAAAAAAAAAAAAAAAAAAAAAAAAAAAAAAAAAAAAAAAAAAAAAAAAAAAAAAAAAAAAAAAAAAAAAAAAAAAAAAAAAAAAAAAAAAAAAAAAAAAAAAAAAAAAAAAAAAAAAAAAAAAAAAAAAAAAAAAAAAAAAAAAAAAAAAAAAAAAAAAAAAAAAAAAAAAAAAAAAAAAAAAAAAAAAAAAAAAAAAAAAAAAAAAAAAAAAAAAAAAAAAAAAAAAAAAAAAAAAAAAAAAAAAAAAAAAAAAAAAAAAAAAAAAAAAAAAAAAAAAAAAAAAAAAAAAAAAAAAAAAAAAAAAAAAAAAAAAAAAAAAAAAAAAAAAAAAAAAAAAAAAAAAAAAAAAAAAAAAAAAAAAAAAAAAAAAAAAAAAAAAAAAAAAAAAAAAAAAAAAAAAAAAAAAAAAAAAAAAAAAAAAAAAAAAAAAAAAAAAAAAAAAAAAAAAAAAAAAAAAAAAAAAAAAAAAAAAAAAAAAAAAAAAAAAAAAAAAAAAAAAAAAAAAAAAAAAAAAAAAAAAAAAAAAAAAAAAAAAAAAAAAAAAAAAAAAAAAAAAAAAAAAAAAAAAAAAAAAAAAAAAAAAAAAAAAAAAAAAAAAAAAAAAAAAAAAAAAAAAAAAAAAAAAAAAAAAAAAAAAAAAAAAAAAAAAAAAAAAAAAAAAAAAAAAAAAAAAAAAAAAAAAAAAAAAAAAAAAAAAAAAAAAAAAAAAAAAAAAAAAAAAAAAAAAAAAAAAAAAAAAAAAAAAAAAAAAAAAAAAAAAAAAAAAAAAAAAAAAAAAAAAAAAAAAAAAAAAAAAAAAAAAAAAAAAAAAAAAAAAAAAAAAAAAAAAAAAAAAAAAAAAAAAAAAAAAAAAAAAAAAAAAAAAAAAAAAAAAAAAAAAAAAAAAAAAAAAAAAAAAAAAAAAAAAAAAAAAAAAAAAAAAAAAAAAAAAAAAAAAAAAAAAAAAAAAAAAAAAAAAAAAAAAAAAAAAAAAAAAAAAAAAAAAAAAAAAAAAAAAAAAAAAAAAAAAAAAAAAAAAAAAAAAAAAAAAAAAAAAAAAAAAAAAAAAAAAAAAAAAAAAAAAAAAAAAAAAAAAAAAAAAAAAAAAAAAAAAAAAAAAAAAAAAAAAAAAAAAAAAAAAAAAAAAAAAAAAAAAAAAAAAAAAAAAAAAAAAAAAAAAAAAAAAAAAAAAAAAAAAAAAAAAAAAAAAAAAAAAAAAAAAAAAAAAAAAAAAAAAAAAAAAAAAAAAAAAAAAAAAAAAAAAAAAAAAAAAAAAAAAAAAAAAAAAAAAAAAAAAAAAAAAAAAAAAAAAAAAAAAAAAAAAAAAAAAAAAAAAAAAAAAAAAAAAAAAAAAAAAAAAAAAAAAAAAAAAAAAAAAAAAAAAAAAAAAAAAAAAAAAAAAAAAAAAAAAAAAAAAAAAAAAAAAAAAAAAAAAAAAAAAAAAAAAAAAAAAAAAAAAAAAAAAAAAAAAAAAAAAAAAAAAAAAAAAAAAAAAAAAAAAAAAAAAAAAAAAAAAAAAAAAAAAAAAAAAAAAAAAAAAAAAAAAAAAAAAAAAAAAAAAAAAAAAAAAAAAAAAAAAAAAAAAAAAAAAAAAAAAAAAAAAAAAAAAAAAAAAAAAAAAAAAAAAAAAAAAAAAAAAAAAAAAAAAAAAAAAAAAAAAAAAAAAAAAAAAAAAAAAAAAAAAAAAAAAAAAAAAAAAAAAAAAAAAAAAAAAAAAAAAAAAAAAAAAAAAAAAAAAAAAAAAAAAAAAAAAAAAAAAAAAAAAAAAAAAAAAAAAAAAAAAAAAAAAAAAAAAAAAAAAAAAAAAAAAAAAAAAAAAAAAAAAAAAAAAAAAAAAAAAAAAAAAAAAAAAAAAAAAAAAAAAAAAAAAAAAAAAAAAAAAAAAAAAAAAAAAAAAAAAAAAAAAAAAAAAAAAAAAAAAAAAAAAAAAAAAAAAAAAAAAAAAAAAAAAAAAAAAAAAAAAAAAAAAAAAAAAAAAAAAAAAAAAAAAAAAAAAAAAAAAAAAAAAAAAAAAAAAAAAAAAAAAAAAAAAAAAAAAAAAAAAAAAAAAAAAAAAAAAAAAAAAAAAAAAAAAAAAAAAAAAAAAAAAAAAAAAAAAAAAAAAAAAAAAAAAAAAAAAAAAAAAAAAAAAAAAAAAAAAAAAAAAAAAAAAAAAAAAAAAAAAAAAAAAAAAAAAAAAAAAAAAAAAAAAAAAAAAAAAAAAAAAAAAAAAAAAAAAAAAAAAAAAAAAAAAAAAAAAAAAAAAAAAAAAAAAAAAAAAAAAAAAAAAAAAAAAAAAAAAAAAAAAAAAAAAAAAAAAAAAAAAAAAAAAAAAAAAAAAAAAAAAAAAAAAAAAAAAAAAAAAAAAAAAAAAAAAAAAAAAAAAAAAAAAAAAAAAAAAAAAAAAAAAAAAAAAAAAAAAAAAAAAAAAAAAAAAAAAAAAAAAAAAAAAAAAAAAAAAAAAAAAAAAAAAAAAAAAAAAAAAAAAAAAAAAAAAAAAAAAAAAAAAAAAAAAAAAAAAAAAAAAAAAAAAAAAAAAAAAAAAAAAAAAAAAAAAAAAAAAAAAAAAAAAAAAAAAAAAAAAAAAAAAAAAAAAAAAAAAAAAAAAAAAAAAAAAAAAAAAAAAAAAAAAAAAAAAAAAAAAAAAAAAAAAAAAAAAAAAAAAAAAAAAAAAAAAAAAAAAAAAAAAAAAAAAAAAAAAAAAAAAAAAAAAAAAAAAAAAAAAAAAAAAAAAAAAAAAAAAAAAAAAAAAAAAAAAAAAAAAAAAAAAAAAAAAAAAAAAAAAAAAAAAAAAAAAAAAAAAAAAAAAAAAAAAAAAAAAAAAAAAAAAAAAAAAAAAAAAAAAAAAAAAAAAAAAAAAAAAAAAAAAAAAAAAAAAAAAAAAAAAAAAAAAAAAAAAAAAAAAAAAAAAAAAAAAAAAAAAAAAAAAAAAAAAAAAAAAAAAAAAAAAAAAAAAAAAAAAAAAAAAAAAAAAAAAAAAAAAAAAAAAAAAAAAAAAAAAAAAAAAAAAAAAAAAAAAAAAAAAAAAAAAAAAAAAAAAAAAAAAAAAAAAAAAAAAAAAAAAAAAAAAAAAAAAAAAAAAAAAAAAAAAAAAAAAAAAAAAAAAAAAAAAAAAAAAAAAAAAAAAAAAAAAAAAAAAAAAAAAAAAAAAAAAAAAAAAAAAAAAAAAAAAAAAAAAAAAAAAAAAAAAAAAAAAAAAAAAAAAAAAAAAAAAAAAAAAAAAAAAAAAAAAAAAAAAAAAAAAAAAAAAAAAAAAAAAAAAAAAAAAAAAAAAAAAAAAAAAAAAAAAAAAAAAAAAAAAAAAAAAAAAAAAAAAAAAAAAAAAAAAAAAAAAAAAAAAAAAAAAAAAAAAAAAAAAAAAAAAAAAAAAAAAAAAAAAAAAAAAAAAAAAAAAAAAAAAAAAAAAAAAAAAAAAAAAAAAAAAAAAAAAAAAAAAAAAAAAAAAAAAAAAAAAAAAAAAAAAAAAAAAAAAAAAAAAAAAAAAAAAAAAAAAAAAAAAAAAAAAAAAAAAAAAAAAAAAAAAAAAAAAAAAAAAAAAAAAAAAAAAAAAAAAAAAAAAAAAAAAAAAAAAAAAAAAAAAAAAAAAAAAAAAAAAAAAAAAAAAAAAAAAAAAAAAAAAAAAAAAAAAAAAAAAAAAAAAAAAAAAAAAAAAAAAAAAAAAAAAAAAAAAAAAAAAAAAAAAAAAAAAAAAAAAAAAAAAAAAAAAAAAAAAAAAAAAAAAAAAAAAAAAAAAAAAAAAAAAAAAAAAAAAAAAAAAAAAAAAAAAAAAAAAAAAAAAAAAAAAAAAAAAAAAAAAAAAAAAAAAAAAAAAAAAAAAAAAAAAAAAAAAAAAAAAAAAAAAAAAAAAAAAAAAAAAAAAAAAAAAAAAAAAAAAAAAAAAAAAAAAAAAAAAAAAAAAAAAAAAAAAAAAAAAAAAAAAAAAAAAAAAAAAAAAAAAAAAAAAAAAAAAAAAAAAAAAAAAAAAAAAAAAAAAAAAAAAAAAAAAAAAAAAAAAAAAAAAAAAAAAAAAAAAAAAAAAAAAAAAAAAAAAAAAAAAAAAAAAAAAAAAAAAAAAAAAAAAAAAAAAAAAAAAAAAAAAAAAAAAAAAAAAAAAAAAAAAAAAAAAAAAAAAAAAAAAAAAAAAAAAAAAAAAAAAAAAAAAAAAAAAAAAAAAAAAAAAAAAAAAAAAAAAAAAAAAAAAAAAAAAAAAAAAAAAAAAAAAAAAAAAAAAAAAAAAAAAAAAAAAAAAAAAAAAAAAAAAAAAAAAAAAAAAAAAAAAAAAAAAAAAAAAAAAAAAAAAAAAAAAAAAAAAAAAAAAAAAAAAAAAAAAAAAAAAAAAAAAAAAAAAAAAAAAAAAAAAAAAAAAAAAAAAAAAAAAAAAAAAAAAAAAAAAAAAAAAAAAAAAAAAAAAAAAAAAAAAAAAAAAAAAAAAAAAAAAAAAAAAAAAAAAAAAAAAAAAAAAAAAAAAAAAAAAAAAAAAAAAAAAAAAAAAAAAAAAAAAAAAAAAAAAAAAAAAAAAAAAAAAAAAAAAAAAAAAAAAAAAAAAAAAAAAAAAAAAAAAAAAAAAAAAAAAAAAAAAAAAAAAAAAAAAAAAAAAAAAAAAAAAAAAAAAAAAAAAAAAAAAAAAAAAAAAAAAAAAAAAAAAAAAAAAAAAAAAAAAAAAAAAAAAAAAAAAAAAAAAAAAAAAAAAAAAAAAAAAAAAAAAAAAAAAAAAAAAAAAAAAAAAAAAAAAAAAAAAAAAAAAAAAAAAAAAAAAAAAAAAAAAAAAAAAAAAAAAAAAAAAAAAAAAAAAAAAAAAAAAAAAAAAAAAAAAAAAAAAAAAAAAAAAAAAAAAAAAAAAAAAAAAAAAAAAAAAAAAAAAAAAAAAAAAAAAAAAAAAAAAAAAAAAAAAAAAAAAAAAAAAAAAAAAAAAAAAAAAAAAAAAAAAAAAAAAAAAAAAAAAAAAAAAAAAAAAAAAAAAAAAAAAAAAAAAAAAAAAAAAAAAAAAAAAAAAAAAAAAAAAAAAAAAAAAAAAAAAAAAAAAAAAAAAAAAAAAAAAAAAAAAAAAAAAAAAAAAAAAAAAAAAAAAAAAAAAAAAAAAAAAAAAAAAAAAAAAAAAAAAAAAAAAAAAAAAAAAAAAAAAAAAAAAAAAAAAAAAAAAAAAAAAAAAAAAAAAAAAAAAAAAAAAAAAAAAAAAAAAAAAAAAAAAAAAAAAAAAAAAAAAAAAAAAAAAAAAAAAAAAAAAAAAAAAAAAAAAAAAAAAAAAAAAAAAAAAAAAAAAAAAAAAAAAAAAAAAAAAAAAAAAAAAAAAAAAAAAAAAAAAAAAAAAAAAAAAAAAAAAAAAAAAAAAAAAAAAAAAAAAAAAAAAAAAAAAAAAAAAAAAAAAAAAAAAAAAAAAAAAAAAAAAAAAAAAAAAAAAAAAAAAAAAAAAAAAAAAAAAAAAAAAAAAAAAAAAAAAAAAAAAAAAAAAAAAAAAAAAAAAAAAAAAAAAAAAAAAAAAAAAAAAAAAAAAAAAAAAAAAAAAAAAAAAAAAAAAAAAAAAAAAAAAAAAAAAAAAAAAAAAAAAAAAAAAAAAAAAAAAAAAAAAAAAAAAAAAAAAAAAAAAAAAAAAAAAAAAAAAAAAAAAAAAAAAAAAAAAAAAAAAAAAAAAAAAAAAAAAAAAAAAAAAAAAAAAAAAAAAAAAAAAAAAAAAAAAAAAAAAAAAAAAAAAAAAAAAAAAAAAAAAAAAAAAAAAAAAAAAAAAAAAAAAAAAAAAAAAAAAAAAAAAAAAAAAAAAAAAAAAAAAAAAAAAAAAAAAAAAAAAAAAAAAAAAAAAAAAAAAAAAAAAAAAAAAAAAAAAAAAAAAAAAAAAAAAAAAAAAAAAAAAAAAAAAAAAAAAAAAAAAAAAAAAAAAAAAAAAAAAAAAAAAAAAAAAAAAAAAAAAAAAAAAAAAAAAAAAAAAAAAAAAAAAAAAAAAAAAAAAAAAAAAAAAAAAAAAAAAAAAAAAAAAAAAAAAAAAAAAAAAAAAAAAAAAAAAAAAAAAAAAAAAAAAAAAAAAAAAAAAAAAAAAAAAAAAAAAAAAAAAAAAAAAAAAAAAAAAAAAAAAAAAAAAAAAAAAAAAAAAAAAAAAAAAAAAAAAAAAAAAAAAAAAAAAAAAAAAAAAAAAAAAAAAAAAAAAAAAAAAAAAAAAAAAAAAAAAAAAAAAAAAAAAAAAAAAAAAAAAAAAAAAAAAAAAAAAAAAAAAAAAAAAAAAAAAAAAAAAAAAAAAAAAAAAAAAAAAAAAAAAAAAAAAAAAAAAAAAAAAAAAAAAAAAAAAAAAAAAAAAAAAAAAAAAAAAAAAAAAAAAAAAAAAAAAAAAAAAAAAAAAAAAAAAAAAAAAAAAAAAAAAAAAAAAAAAAAAAAAAAAAAAAAAAAAAAAAAAAAAAAAAAAAAAAAAAAAAAAAAAAAAAAAAAAAAAAAAAAAAAAAAAAAAAAAAAAAAAAAAAAAAAAAAAAAAAAAAAAAAAAAAAAAAAAAAAAAAAAAAAAAAAAAAAAAAAAAAAAAAAAAAAAAAAAAAAAAAAAAAAAAAAAAAAAAAAAAAAAAAAAAAAAAAAAAAAAAAAAAAAAAAAAAAAAAAAAAAAAAAAAAAAAAAAAAAAAAAAAAAAAAAAAAAAAAAAAAAAAAAAAAAAAAAAAAAAAAAAAAAAAAAAAAAAAAAAAAAAAAAAAAAAAAAAAAAAAAAAAAAAAAAAAAAAAAAAAAAAAAAAAAAAAAAAAAAAAAAAAAAAAAAAAAAAAAAAAAAAAAAAAAAAAAAAAAAAAAAAAAAAAAAAAAAAAAAAAAAAAAAAAAAAAAAAAAAAAAAAAAAAAAAAAAAAAAAAAAAAAAAAAAAAAAAAAAAAAAAAAAAAAAAAAAAAAAAAAAAAAAAAAAAAAAAAAAAAAAAAAAAAAAAAAAAAAAAAAAAAAAAAAAAAAAAAAAAAAAAAAAAAAAAAAAAAAAAAAAAAAAAAAAAAAAAAAAAAAAAAAAAAAAAAAAAAAAAAAAAAAAAAAAAAAAAAAAAAAAAAAAAAAAAAAAAAAAAAAAAAAAAAAAAAAAAAAAAAAAAAAAAAAAAAAAAAAAAAAAAAAAAAAAAAAAAAAAAAAAAAAAAAAAAAAAAAAAAAAAAAAAAAAAAAAAAAAAAAAAAAAAAAAAAAAAAAAAAAAAAAAAAAAAAAAAAAAAAAAAAAAAAAAAAAAAAAAAAAAAAAAAAAAAAAAAAAAAAAAAAAAAAAAAAAAAAAAAAAAAAAAAAAAAAAAAAAAAAAAAAAAAAAAAAAAAAAAAAAAAAAAAAAAAAAAAAAAAAAAAAAAAAAAAAAAAAAAAAAAAAAAAAAAAAAAAAAAAAAAAAAAAAAAAAAAAAAAAAAAAAAAAAAAAAAAAAAAAAAAAAAAAAAAAAAAAAAAAAAAAAAAAAAAAAAAAAAAAAAAAAAAAAAAAAAAAAAAAAAAAAAAAAAAAAAAAAAAAAAAAAAAAAAAAAAAAAAAAAAAAAAAAAAAAAAAAAAAAAAAAAAAAAAAAAAAAAAAAAAAAAAAAAAAAAAAAAAAAAAAAAAAAAAAAAAAAAAAAAAAAAAAAAAAAAAAAAAAAAAAAAAAAAAAAAAAAAAAAAAAAAAAAAAAAAAAAAAAAAAAAAAAAAAAAAAAAAAAAAAAAAAAAAAAAAAAAAAAAAAAAAAAAAAAAAAAAAAAAAAAAAAAAAAAAAAAAAAAAAAAAAAAAAAAAAAAAAAAAAAAAAAAAAAAAAAAAAAAAAAAAAAAAAAAAAAAAAAAAAAAAAAAAAAAAAAAAAAAAAAAAAAAAAAAAAAAAAAAAAAAAAAAAAAAAAAAAAAAAAAAAAAAAAAAAAAAAAAAAAAAAAAAAAAAAAAAAAAAAAAAAAAAAAAAAAAAAAAAAAAAAAAAAAAAAAAAAAAAAAAAAAAAAAAAAAAAAAAAAAAAAAAAAAAAAAAAAAAAAAAAAAAAAAAAAAAAAAAAAAAAAAAAAAAAAAAAAAAAAAAAAAAAAAAAAAAAAAAAAAAAAAAAAAAAAAAAAAAAAAAAAAAAAAAAAAAAAAAAAAAAAAAAAAAAAAAAAAAAAAAAAAAAAAAAAAAAAAAAAAAAAAAAAAAAAAAAAAAAAAAAAAAAAAAAAAAAAAAAAAAAAAAAAAAAAAAAAAAAAAAAAAAAAAAAAAAAAAAAAAAAAAAAAAAAAAAAAAAAAAAAAAAAAAAAAAAAAAAAAAAAAAAAAAAAAAAAAAAAAAAAAAAAAAAAAAAAAAAAAAAAAAAAAAAAAAAAAAAAAAAAAAAAAAAAAAAAAAAAAAAAAAAAAAAAAAAAAAAAAAAAAAAAAAAAAAAAAAAAAAAAAAAAAAAAAAAAAAAAAAAAAAAAAAAAAAAAAAAAAAAAAAAAAAAAAAAAAAAAAAAAAAAAAAAAAAAAAAAAAAAAAAAAAAAAAAAAAAAAAAAAAAAAAAAAAAAAAAAAAAAAAAAAAAAAAAAAAAAAAAAAAAAAAAAAAAAAAAAAAAAAAAAAAAAAAAAAAAAAAAAAAAAAAAAAAAAAAAAAAAAAAAAAAAAAAAAAAAAAAAAAAAAAAAAAAAAAAAAAAAAAAAAAAAAAAAAAAAAAAAAAAAAAAAAAAAAAAAAAAAAAAAAAAAAAAAAAAAAAAAAAAAAAAAAAAAAAAAAAAAAAAAAAAAAAAAAAAAAAAAAAAAAAAAAAAAAAAAAAAAAAAAAAAAAAAAAAAAAAAAAAAAAAAAAAAAAAAAAAAAAAAAAAAAAAAAAAAAAAAAAAAAAAAAAAAAAAAAAAAAAAAAAAAAAAAAAAAAAAAAAAAAAAAAAAAAAAAAAAAAAAAAAAAAAAAAAAAAAAAAAAAAAAAAAAAAAAAAAAAAAAAAAAAAAAAAAAAAAAAAAAAAAAAAAAAAAAAAAAAAAAAAAAAAAAAAAAAAAAAAAAAAAAAAAAAAAAAAAAAAAAAAAAAAAAAAAAAAAAAAAAAAAAAAAAAAAAAAAAAAAAAAAAAAAAAAAAAAAAAAAAAAAAAAAAAAAAAAAAAAAAAAAAAAAAAAAAAAAAAAAAAAAAAAAAAAAAAAAAAAAAAAAAAAAAAAAAAAAAAAAAAAAAAAAAAAAAAAAAAAAAAAAAAAAAAAAAAAAAAAAAAAAAAAAAAAAAAAAAAAAAAAAAAAAAAAAAAAAAAAAAAAAAAAAAAAAAAAAAAAAAAAAAAAAAAAAAAAAAAAAAAAAAAAAAAAAAAAAAAAAAAAAAAAAAAAAAAAAAAAAAAAAAAAAAAAAAAAAAAAAAAAAAAAAAAAAAAAAAAAAAAAAAAAAAAAAAAAAAAAAAAAAAAAAAAAAAAAAAAAAAAAAAAAAAAAAAAAAAAAAAAAAAAAAAAAAAAAAAAAAAAAAAAAAAAAAAAAAAAAAAAAAAAAAAAAAAAAAAAAAAAAAAAAAAAAAAAAAAAAAAAAAAAAAAAAAAAAAAAAAAAAAAAAAAAAAAAAAAAAAAAAAAAAAAAAAAAAAAAAAAAAAAAAAAAAAAAAAAAAAAAAAAAAAAAAAAAAAAAAAAAAAAAAAAAAAAAAAAAAAAAAAAAAAAAAAAAAAAAAAAAAAAAAAAAAAAAAAAAAAAAAAAAAAAAAAAAAAAAAAAAAAAAAAAAAAAAAAAAAAAAAAAAAAAAAAAAAAAAAAAAAAAAAAAAAAAAAAAAAAAAAAAAAAAAAAAAAAAAAAAAAAAAAAAAAAAAAAAAAAAAAAAAAAAAAAAAAAAAAAAAAAAAAAAAAAAAAAAAAAAAAAAAAAAAAAAAAAAAAAAAAAAAAAAAAAAAAAAAAAAAAAAAAAAAAAAAAAAAAAAAAAAAAAAAAAAAAAAAAAAAAAAAAAAAAAAAAAAAAAAAAAAAAAAAAAAAAAAAAAAAAAAAAAAAAAAAAAAAAAAAAAAAAAAAAAAAAAAAAAAAAAAAAAAAAAAAAAAAAAAAAAAAAAAAAAAAAAAAAAAAAAAAAAAAAAAAAAAAAAAAAAAAAAAAAAAAAAAAAAAAAAAAAAAAAAAAAAAAAAAAAAAAAAAAAAAAAAAAAAAAAAAAAAAAAAAAAAAAAAAAAAAAAAAAAAAAAAAAAAAAAAAAAAAAAAAAAAAAAAAAAAAAAAAAAAAAAAAAAAAAAAAAAAAAAAAAAAAAAAAAAAAAAAAAAAAAAAAAAAAAAAAAAAAAAAAAAAAAAAAAAAAAAAAAAAAAAAAAAAAAAAAAAAAAAAAAAAAAAAAAAAAAAAAAAAAAAAAAAAAAAAAAAAAAAAAAAAAAAAAAAAAAAAAAAAAAAAAAAAAAAAAAAAAAAAAAAAAAAAAAAAAAAAAAAAAAAAAAAAAAAAAAAAAAAAAAAAAAAAAAAAAAAAAAAAAAAAAAAAAAAAAAAAAAAAAAAAAAAAAAAAAAAAAAAAAAAAAAAAAAAAAAAAAAAAAAAAAAAAAAAAAAAAAAAAAAAAAAAAAAAAAAAAAAAAAAAAAAAAAAAAAAAAAAAAAAAAAAAAAAAAAAAAAAAAAAAAAAAAAAAAAAAAAAAAAAAAAAAAAAAAAAAAAAAAAAAAAAAAAAAAAAAAAAAAAAAAAAAAAAAAAAAAAAAAAAAAAAAAAAAAAAAAAAAAAAAAAAAAAAAAAAAAAAAAAAAAAAAAAAAAAAAAAAAAAAAAAAAAAAAAAAAAAAAAAAAAAAAAAAAAAAAAAAAAAAAAAAAAAAAAAAAAAAAAAAAAAAAAAAAAAAAAAAAAAAAAAAAAAAAAAAAAAAAAAAAAAAAAAAAAAAAAAAAAAAAAAAAAAAAAAAAAAAAAAAAAAAAAAAAAAAAAAAAAAAAAAAAAAAAAAAAAAAAAAAAAAAAAAAAAAAAAAAAAAAAAAAAAAAAAAAAAAAAAAAAAAAAAAAAAAAAAAAAAAAAAAAAAAAAAAAAAAAAAAAAAAAAAAAAAAAAAAAAAAAAAAAAAAAAAAAAAAAAAAAAAAAAAAAAAAAAAAAAAAAAAAAAAAAAAAAAAAAAAAAAAAAAAAAAAAAAAAAAAAAAAAAAAAAAAAAAAAAAAAAAAAAAAAAAAAAAAAAAAAAAAAAAAAAAAAAAAAAAAAAAAAAAAAAAAAAAAAAAAAAAAAAAAAAAAAAAAAAAAAAAAAAAAAAAAAAAAAAAAAAAAAAAAAAAAAAAAAAAAAAAAAAAAAAAAAAAAAAAAAAAAAAAAAAAAAAAAAAAAAAAAAAAAAAAAAAAAAAAAAAAAAAAAAAAAAAAAAAAAAAAAAAAAAAAAAAAAAAAAAAAAAAAAAAAAAAAAAAAAAAAAAAAAAAAAAAAAAAAAAAAAAAAAAAAAAAAAAAAAAAAAAAAAAAAAAAAAAAAAAAAAAAAAAAAAAAAAAAAAAAAAAAAAAAAAAAAAAAAAAAAAAAAAAAAAAAAAAAAAAAAAAAAAAAAAAAAAAAAAAAAAAAAAAAAAAAAAAAAAAAAAAAAAAAAAAAAAAAAAAAAAAAAAAAAAAAAAAAAAAAAAAAAAAAAAAAAAAAAAAAAAAAAAAAAAAAAAAAAAAAAAAAAAAAAAAAAAAAAAAAAAAAAAAAAAAAAAAAAAAAAAAAAAAAAAAAAAAAAAAAAAAAAAAAAAAAAAAAAAAAAAAAAAAAAAAAAAAAAAAAAAAAAAAAAAAAAAAAAAAAAAAAAAAAAAAAAAAAAAAAAAAAAAAAAAAAAAAAAAAAAAAAAAAAAAAAAAAAAAAAAAAAAAAAAAAAAAAAAAAAAAAAAAAAAAAAAAAAAAAAAAAAAAAAAAAAAAAAAAAAAAAAAAAAAAAAAAAAAAAAAAAAAAAAAAAAAAAAAAAAAAAAAAAAAAAAAAAAAAAAAAAAAAAAAAAAAAAAAAAAAAAAAAAAAAAAAAAAAAAAAAAAAAAAAAAAAAAAAAAAAAAAAAAAAAAAAAAAAAAAAAAAAAAAAAAAAAAAAAAAAAAAAAAAAAAAAAAAAAAAAAAAAAAAAAAAAAAAAAAAAAAAAAAAAAAAAAAAAAAAAAAAAAAAAAAAAAAAAAAAAAAAAAAAAAAAAAAAAAAAAAAAAAAAAAAAAAAAAAAAAAAAAAAAAAAAAAAAAAAAAAAAAAAAAAAAAAAAAAAAAAAAAAAAAAAAAAAAAAAAAAAAAAAAAAAAAAAAAAAAAAAAAAAAAAAAAAAAAAAAAAAAAAAAAAAAAAAAAAAAAAAAAAAAAAAAAAAAAAAAAAAAAAAAAAAAAAAAAAAAAAAAAAAAAAAAAAAAAAAAAAAAAAAAAAAAAAAAAAAAAAAAAAAAAAAAAAAAAAAAAAAAAAAAAAAAAAAAAAAAAAAAAAAAAAAAAAAAAAAAAAAAAAAAAAAAAAAAAAAAAAAAAAAAAAAAAAAAAAAAAAAAAAAAAAAAAAAAAAAAAAAAAAAAAAAAAAAAAAAAAAAAAAAAAAAAAAAAAAAAAAAAAAAAAAAAAAAAAAAAAAAAAAAAAAAAAAAAAAAAAAAAAAAAAAAAAAAAAAAAAAAAAAAAAAAAAAAAAAAAAAAAAAAAAAAAAAAAAAAAAAAAAAAAAAAAAAAAAAAAAAAAAAAAAAAAAAAAAAAAAAAAAAAAAAAAAAAAAAAAAAAAAAAAAAAAAAAAAAAAAAAAAAAAAAAAAAAAAAAAAAAAAAAAAAAAAAAAAAAAAAAAAAAAAAAAAAAAAAAAAAAAAAAAAAAAAAAAAAAAAAAAAAAAAAAAAAAAAAAAAAAAAAAAAAAAAAAAAAAAAAAAAAAAAAAAAAAAAAAAAAAAAAAAAAAAAAAAAAAAAAAAAAAAAAAAAAAAAAAAAAAAAAAAAAAAAAAAAAAAAAAAAAAAAAAAAAAAAAAAAAAAAAAAAAAAAAAAAAAAAAAAAAAAAAAAAAAAAAAAAAAAAAAAAAAAAAAAAAAAAAAAAAAAAAAAAAAAAAAAAAAAAAAAAAAAAAAAAAAAAAAAAAAAAAAAAAAAAAAAAAAAAAAAAAAAAAAAAAAAAAAAAAAAAAAAAAAAAAAAAAAAAAAAAAAAAAAAAAAAAAAAAAAAAAAAAAAAAAAAAAAAAAAAAAAAAAAAAAAAAAAAAAAAAAAAAAAAAAAAAAAAAAAAAAAAAAAAAAAAAAAAAAAAAAAAAAAAAAAAAAAAAAAAAAAAAAAAAAAAAAAAAAAAAAAAAAAAAAAAAAAAAAAAAAAAAAAAAAAAAAAAAAAAAAAAAAPZYQOkJjpsMVQVQIN7fFV9XN62AGXkSCAR09aantNamQ+ttJAxyH3WRfXshMqVnKnNJDGiCLl33myWFIkaVrIP1DP4=</c2pa:manifest></metadata>
<path transform="translate(0,0)" fill="rgb(255,255,255)" d="M 0 0 L 2048 0 L 2048 2048 L 0 2048 L 0 0 z"/>
<path transform="translate(0,0)" fill="rgb(0,0,0)" d="M 1456.22 944.861 C 1540.9 893.588 1667.51 847.334 1766.06 836.626 C 1786.08 834.452 1883.62 829.841 1896.06 841.62 C 1902.82 848.025 1898.83 856.703 1894.71 863.091 C 1884.89 878.33 1877.11 893.895 1869.02 910.081 C 1843.68 960.729 1826.37 1010.53 1814.99 1066.12 C 1792.41 1176.44 1778.67 1287.37 1768.9 1399.47 C 1763.99 1455.79 1758.56 1512.38 1759.67 1568.97 C 1760.08 1589.99 1760.17 1614.47 1765.3 1634.89 C 1768 1645.67 1780.99 1666.55 1780.92 1675.89 C 1780.88 1680.34 1779.3 1684.86 1776.13 1688.04 C 1773.55 1690.62 1770.11 1692.53 1766.37 1692.22 C 1756.33 1691.38 1749.16 1674.82 1743.59 1667.59 C 1734.93 1656.34 1705.74 1650.15 1692.24 1647.21 C 1495.99 1604.51 1248.63 1718.21 1050.37 1749.2 C 1017.87 1754.47 984.993 1757.1 952.067 1757.08 C 935.161 1757 917.923 1755.42 901.391 1755.47 C 884.353 1755.52 866.615 1756.81 849.285 1757.02 C 818.529 1757.45 787.788 1755.43 757.353 1750.97 C 620.847 1731.12 499.032 1652.83 416.824 1543.17 C 383.665 1498.99 355.865 1451.03 334.007 1400.29 C 264.804 1241.78 226.338 1008.66 251.043 836.638 C 271.488 694.289 332.226 576.322 449.305 490.433 C 535.419 427.26 623.849 395.335 726.501 367.87 C 844.377 336.331 965.196 322.87 1086.64 339.954 C 1150.95 349.929 1218.94 366.693 1277.18 396.615 C 1306.38 411.621 1331.57 427.367 1361.79 441.818 C 1451.04 484.495 1509.77 586.333 1486.66 685.088 C 1483.04 700.557 1476.82 715.17 1474.07 730.646 C 1472.06 750.167 1474.28 773.145 1472.25 793.084 C 1470.22 829.509 1465.59 862.738 1460.05 898.567 C 1460.56 916.744 1457.94 927.578 1456.22 944.861 z"/>
<path transform="translate(0,0)" fill="rgb(255,104,8)" d="M 1447.05 949.655 C 1451.83 932.9 1455.16 914.369 1460.05 898.567 C 1460.56 916.744 1457.94 927.578 1456.22 944.861 C 1453.06 947.12 1450.55 948.077 1447.05 949.655 z"/>
<path transform="translate(0,0)" fill="rgb(255,255,255)" d="M 1837.19 890.103 C 1838.99 891.716 1830.52 908.044 1829.24 910.906 C 1733.52 1124.85 1672.5 1371.53 1725.41 1605.57 C 1707.3 1594.05 1662.29 1573.82 1641.15 1568.16 C 1603.44 1558.05 1556.64 1550.25 1517.59 1550.19 C 1457.5 1550.08 1396.97 1563.27 1338.78 1577.32 C 1299.2 1586.78 1259.78 1596.91 1220.54 1607.7 C 1098.85 1641.9 966.844 1683.49 839.267 1673.55 C 698.514 1662.59 596.941 1610.18 506.935 1500.34 C 398.197 1367.65 322.004 1184.62 313.352 1012.3 C 312.124 987.832 318.816 940.007 321.216 913.257 C 341.017 940.985 387.053 987.114 414.07 1007.18 C 412.42 1032.35 402.198 1190.32 407.984 1205.74 C 408.852 1208.06 409.377 1208.92 411.747 1209.84 C 417.003 1207.52 420.144 1197.99 420.851 1192.79 C 428.416 1137.16 431.571 1081.05 435.749 1025.16 C 463.965 1044.29 486.288 1058.84 516.741 1074.55 C 536.727 1084.86 561.611 1094.89 580.404 1105.63 C 574.655 1130.18 545.264 1276.29 568.143 1290.78 C 571.65 1290.94 570.165 1291.44 572.827 1289.49 C 576.368 1282.86 578.817 1243.75 579.665 1234.24 C 583.255 1187.62 587.01 1156.14 598.649 1111.52 C 647.484 1128.43 682.661 1140.46 734.924 1151.72 C 728.077 1190.98 727.797 1230.53 733.272 1269.98 C 734.978 1282.27 742.439 1331.21 754.227 1334.71 L 756.361 1333.44 C 759.226 1329.11 760.641 1323.97 760.403 1318.78 C 760.169 1314.05 759.084 1307.49 758.291 1302.65 C 750.122 1252.89 748.234 1205.71 755.051 1155.62 C 814.11 1166.68 866.881 1170.58 926.937 1171.22 C 919.32 1216.61 920.102 1263.01 929.246 1308.12 C 931.217 1318.08 936.988 1347.76 948.036 1350.54 L 950.3 1349.02 C 954.36 1341.96 949.455 1312.96 947.977 1303.47 C 940.425 1254.96 941.66 1218.77 947.26 1170.86 C 981.433 1169.15 1016.59 1167.35 1050.56 1163.04 C 1073.71 1160.11 1098.77 1155.3 1121.84 1151.21 C 1106.49 1216.58 1104.81 1294.68 1130.6 1358.38 C 1131.92 1361.62 1134.92 1365.39 1138.43 1366.39 L 1140.48 1365.21 C 1141.28 1363.74 1142.87 1360.81 1142.8 1359.15 C 1142.04 1341.42 1137.77 1318.85 1135.24 1301.31 C 1126.77 1242.78 1128.79 1202.23 1142.2 1145.52 C 1162.13 1138.81 1184.75 1134.21 1205.83 1126.98 C 1251.18 1111.43 1290.2 1093.63 1332.71 1071.84 C 1319.51 1118.98 1313.02 1172.65 1314.25 1222.11 C 1314.63 1237.19 1317.33 1285.2 1328.13 1297.85 C 1329.56 1299.54 1331.89 1299.06 1333.78 1298.74 C 1340.16 1293.09 1335.93 1268.14 1335.09 1258.93 C 1330.06 1203.6 1335.06 1115.67 1353.96 1063.45 C 1363.87 1055.84 1374.79 1052.7 1385.54 1047.14 C 1415.4 1031.68 1446.16 1021.54 1478.14 1011.13 C 1461.27 1063.25 1458.2 1128.05 1469.81 1181.66 C 1471.19 1188.04 1475.07 1204.97 1483.63 1202.07 C 1489.46 1195.74 1484.57 1172.53 1483.6 1162.58 C 1477.86 1103.34 1483.15 1060.57 1499.01 1003.69 C 1551.68 986.015 1604.89 967.274 1658.12 951.268 C 1641.77 1000.61 1633.42 1047.77 1635.75 1099.98 C 1636.12 1108.3 1639.38 1155.44 1651.57 1153.48 C 1658.4 1146.8 1654.83 1127.79 1654.33 1118.18 C 1653.45 1102.68 1653.33 1087.15 1653.98 1071.64 C 1655.86 1027.89 1664.64 984.714 1680.01 943.713 C 1732.9 927.314 1785.31 909.437 1837.19 890.103 z"/>
<path transform="translate(0,0)" fill="rgb(255,104,8)" d="M 1185.07 647.928 L 1186.84 644.57 C 1188.78 645.932 1187.92 645.341 1188.78 648.677 C 1188.81 655.029 1190.4 666.968 1191.1 673.919 C 1192.68 688.792 1193.86 703.704 1194.64 718.64 C 1197.18 772.843 1196.95 824.691 1196.9 878.899 C 1179.88 886.74 1162.46 893.662 1144.7 899.634 C 1041.79 934.365 951.096 944.739 843.655 921.961 C 806.873 914.163 773.928 904.385 739.86 887.448 C 714.366 874.724 673.644 849.077 664.998 819.561 C 652.512 776.934 694.59 742.749 726.677 726.706 C 818.128 680.983 919.165 694.688 1017.3 697.861 C 1065.97 699.435 1159.73 699.43 1184.54 649.027 L 1185.07 647.928 z"/>
<path transform="translate(0,0)" fill="rgb(255,255,255)" d="M 604.412 1022.51 C 533.777 991.164 475.367 959.162 441.524 883.514 C 413.198 820.196 433.124 729.401 481.099 681.11 C 500.956 661.123 567.255 625.264 595.098 615.011 C 710.777 572.409 846.18 559.851 968.639 569.65 C 1007.74 572.709 1016.17 573.739 1051.91 589.159 C 1045.77 611.009 1045.99 624.552 1045.57 646.979 C 1015.75 647.29 983.53 643.262 953.494 641.369 C 929.888 639.882 910.288 639.837 886.698 640.505 C 887.03 627.935 889.238 615.093 889.434 602.567 C 889.557 594.669 892.194 570.87 879.553 571.414 C 867.764 579.453 870.099 627.476 873.252 640.821 C 823.695 642.282 764.948 652.322 718.894 670.679 C 719.478 646.407 724.467 621.385 721.906 597.042 C 721.358 591.829 720.852 587.18 715.046 586.365 C 696.559 593.306 703.566 658.94 706.179 675.348 C 670.198 691.317 647.314 705.396 626.461 738.973 L 625.848 740.878 C 624.059 746.284 618.371 756.627 617.583 761.151 C 613.193 786.376 611.936 816.649 610.771 842.313 L 606.097 964.529 C 605.68 979.133 606.925 1010.52 604.412 1022.51 z"/>
<path transform="translate(0,0)" fill="rgb(255,104,8)" d="M 612.261 767.7 C 615.678 755.301 617.323 748.609 626.461 738.973 L 625.848 740.878 C 624.059 746.284 618.371 756.627 617.583 761.151 C 613.193 786.376 611.936 816.649 610.771 842.313 L 606.097 964.529 C 605.68 979.133 606.925 1010.52 604.412 1022.51 C 603.414 1011.81 603.862 997.324 604.066 986.479 C 546.161 984.609 517.8 961.381 507.143 905.159 C 502.291 879.565 500.268 864.025 507.89 838.139 C 517.286 806.228 533.481 792.691 561.846 777.281 C 565.79 788.562 568.983 807.17 577.473 814.506 L 578.797 814.298 C 583.44 806.947 577.944 780.744 576.508 771.479 C 589.184 769.289 599.506 768.324 612.261 767.7 z"/>
<path transform="translate(0,0)" fill="rgb(0,0,0)" d="M 561.846 777.281 C 553.694 742.01 548.557 705.316 552.236 669.1 C 552.856 662.992 557.803 628.507 567.313 631.467 C 569.531 634.347 571.466 640.057 571.249 643.535 C 568.527 687.311 570.281 727.873 576.508 771.479 C 577.944 780.744 583.44 806.947 578.797 814.298 L 577.473 814.506 C 568.983 807.17 565.79 788.562 561.846 777.281 z"/>
<path transform="translate(0,0)" fill="rgb(255,255,255)" d="M 988.583 408.5 C 1011.68 406.984 1039.65 407.984 1063.12 409.217 C 1138.32 413.943 1218.99 420.726 1289.96 447.867 C 1420.4 497.747 1463.97 660.113 1380.36 769.963 C 1367.84 728.912 1355.66 706.859 1332.25 671.003 C 1332.4 637.822 1334.66 604.683 1339.02 571.788 C 1341.16 555.229 1354.46 501.956 1352.69 491.741 C 1349.92 488.953 1351.51 489.755 1347.87 489.004 C 1339.9 491.849 1335.98 510.016 1333.69 517.696 C 1321.07 560.031 1314.32 606.341 1315.66 650.536 C 1281.89 608.907 1236.34 577.718 1189.89 552.105 L 1194 524.228 C 1195.67 513.553 1207.35 459.382 1202.38 452.942 C 1198.79 451.131 1200.49 451.169 1197.19 452.076 C 1185.26 463.187 1175.2 525.293 1172.71 543.41 C 1124.87 524.981 1071.15 515.851 1019.94 514.918 C 1021.82 496.039 1025.03 477.011 1026.11 458.091 C 1026.48 451.648 1026.95 443.835 1020.76 440.505 L 1018.26 441.409 C 1009.09 451.98 1003.9 498.755 1002.46 514.189 C 981.921 513.741 961.027 514.432 940.666 513.9 C 902.878 512.913 866.341 512.371 828.529 513.608 C 829.528 502.333 832.979 438.296 820.107 437.452 C 805.85 446.404 813.566 499.58 818.78 514.33 C 745.485 519.004 702.006 524.797 631.907 544.649 C 630.753 527.374 629.556 513.097 626.992 496.024 C 646.811 485.422 689.996 470.363 711.629 462.984 C 803.126 431.775 891.839 413.468 988.583 408.5 z"/>
<path transform="translate(0,0)" fill="rgb(255,255,255)" d="M 1201.38 586.683 C 1217.51 596.56 1235.02 607.131 1250.04 618.633 C 1306.82 662.109 1342.12 715.934 1368.94 781.481 C 1328.16 815.446 1270.34 845.855 1222.18 867.804 C 1222.42 816.802 1220.57 765.812 1216.63 714.961 C 1215.61 702.837 1213.92 680.025 1211.97 668.509 C 1210.2 660.945 1206.95 628.136 1207.15 620.628 L 1201.38 586.683 z"/>
<path transform="translate(0,0)" fill="rgb(200,46,4)" d="M 1207.15 620.628 C 1211.48 637.218 1216.94 650.631 1211.97 668.509 C 1210.2 660.945 1206.95 628.136 1207.15 620.628 z"/>
<path transform="translate(0,0)" fill="rgb(255,104,8)" d="M 1439.64 792.75 C 1440.4 796.739 1438.63 817.493 1438.27 823.046 C 1434.99 872.976 1431.7 920.293 1417.2 968.464 C 1347.8 1015.47 1298.27 1036.7 1217.19 1057.88 C 1217.32 1030.3 1217.96 1002.73 1219.11 975.175 C 1317.19 922.717 1370.23 879.454 1439.64 792.75 z"/>
<path transform="translate(0,0)" fill="rgb(255,104,8)" d="M 1208.89 932.159 C 1210.11 934.671 1206.47 952.781 1205.74 956.967 C 1201.71 958.495 1196.29 961.415 1192.36 963.458 C 1151.42 984.775 1107.79 996.024 1063 1006.58 C 1063.63 999.495 1066.18 986.374 1060.6 981.194 L 1058.25 981.887 C 1051.86 988.697 1048.83 1000.84 1047.57 1009.96 C 1005.8 1017.62 963.526 1022.19 921.087 1023.65 C 912.965 1023.92 902.936 1024.4 894.805 1023.64 C 893.219 1023.49 892.2 1020.91 891.009 1019.04 C 888.302 1017.72 889.699 1017.89 886.661 1018.67 C 885.166 1021.21 885.045 1021.69 882.987 1023.72 C 856.294 1024.14 817.124 1018.77 790.769 1014.11 C 780.889 1012.11 771.027 1010.02 761.187 1007.83 C 761.867 998.835 761.953 989.206 762.193 980.143 C 899.239 1013.53 1026.37 990.827 1158.46 949.275 C 1175.61 943.877 1191.98 938.344 1208.89 932.159 z"/>
<path transform="translate(0,0)" fill="rgb(255,255,255)" d="M 739.184 1684.57 C 756.06 1690.09 783.685 1693.86 801.332 1696.19 C 1008.92 1723.54 1208.72 1626.97 1409.99 1591.89 L 1410.79 1593.7 C 1329.72 1615.75 1250.08 1642.25 1168.95 1666.05 C 1083.11 1691.24 988.148 1723.26 897.704 1724.25 C 847.817 1724.79 783.058 1705.9 737.742 1686.52 L 739.184 1684.57 z"/>
<path transform="translate(0,0)" fill="rgb(255,104,8)" d="M 1202.91 982.902 L 1203.71 982.956 C 1206.07 984.835 1204.59 999.565 1204.47 1003.29 C 1203.73 1022.45 1204.51 1041.64 1206.82 1060.68 C 1160.28 1072.71 1112.65 1080.04 1064.64 1082.56 C 1062.46 1082.72 1063.24 1082.73 1061.07 1082.09 C 1058.57 1075.4 1061.11 1039.9 1061.54 1030.42 C 1114.27 1017.38 1153.38 1007.25 1202.91 982.902 z"/>
<path transform="translate(0,0)" fill="rgb(255,255,255)" d="M 482.821 544.727 C 498.328 531.413 516.456 516.187 533.647 504.8 C 643.793 431.842 778.528 389.292 909.704 377.358 C 948.318 373.846 987.159 374.895 1025.47 376.103 C 1027.58 378.904 1021.22 378.371 1018.46 378.898 C 848.683 380.095 625.782 451.88 485.424 546.352 L 482.821 544.727 z"/>
<path transform="translate(0,0)" fill="rgb(255,255,255)" d="M 614.842 501.958 C 616.909 503.568 613.784 530.068 615.198 535.624 C 615.981 538.7 616.783 546.175 617.559 549.849 C 556.747 575.022 508.052 596.803 459.015 642.398 L 458.3 642.04 C 457.438 636.893 461.174 604.468 460.913 594.696 L 460.1 595.398 C 506.861 557.58 560.244 526.906 614.842 501.958 z"/>
<path transform="translate(0,0)" fill="rgb(255,104,8)" d="M 1042.35 1034.28 L 1043.96 1034.56 C 1044.44 1039.48 1043.77 1048.96 1043.85 1054.37 C 1043.99 1064.23 1044.12 1074.06 1044.33 1083.94 C 1017.42 1084.71 990.485 1084.94 963.558 1084.62 C 961.038 1082.23 960.29 1081.19 957.003 1079.92 C 955.337 1080.52 954.14 1081.17 952.763 1082.26 C 948.614 1085.56 914.621 1081.82 907.041 1081.21 C 904.031 1081.13 901.752 1080.92 898.794 1080.61 C 898.351 1080.23 897.908 1079.84 897.465 1079.45 C 897.131 1069.92 895.821 1055.87 894.514 1047.06 C 944.092 1047.67 993.609 1043.39 1042.35 1034.28 z"/>
<path transform="translate(0,0)" fill="rgb(255,104,8)" d="M 725.665 1018.3 C 742.845 1023.25 757.594 1028.33 775.281 1032.53 C 812.14 1041.27 846.197 1044.35 883.641 1047.08 C 882.699 1055.96 882.494 1068.65 882.061 1077.83 L 881.299 1078.57 C 869.09 1080.78 748.968 1059.33 728.303 1056.1 C 728.277 1042.4 727.174 1031.79 725.665 1018.3 z"/>
<path transform="translate(0,0)" fill="rgb(255,255,255)" d="M 368.63 795.083 C 368.983 793.664 369.073 792.541 370.183 791.674 C 371.783 791.438 370.412 802.01 370.331 802.866 C 369.267 825.64 373.601 835.94 376.668 854.938 C 384.739 904.92 390.335 918.394 420.308 957.356 L 417.748 977.328 C 390.42 955.205 365.731 930.008 344.171 902.235 C 343.144 864.01 352.287 829.432 368.63 795.083 z"/>
<path transform="translate(0,0)" fill="rgb(195,195,198)" d="M 368.63 795.083 C 368.983 793.664 369.073 792.541 370.183 791.674 C 371.783 791.438 370.412 802.01 370.331 802.866 C 369.9 799.375 370.144 798.175 368.63 795.083 z"/>
<path transform="translate(0,0)" fill="rgb(255,104,8)" d="M 637.511 975.707 C 656.589 990.786 692.574 1005.73 715.953 1015.12 C 712.552 1031.26 713.913 1037.77 713.567 1053.27 C 709.895 1052.53 706.179 1051.83 702.491 1051.18 L 696.99 1050.21 C 690.621 1049.08 684.285 1047.77 677.988 1046.29 C 662.501 1042.69 649.506 1038.76 634.388 1034.41 L 633.386 1034.13 C 636.351 1019.95 637.011 991.103 637.511 975.707 z"/>
<path transform="translate(0,0)" fill="rgb(255,255,255)" d="M 310.404 1179.84 L 312.69 1175.6 C 346.68 1290.8 392.678 1396.11 466.188 1492.14 L 464.601 1494.21 C 381.058 1399.61 333.615 1303.46 310.404 1179.84 z"/>
<path transform="translate(0,0)" fill="rgb(255,255,255)" d="M 423.286 1502.86 C 488.004 1579.83 580.893 1647.8 668.57 1697.02 L 666.586 1698.32 C 559.118 1658.7 488.459 1595.93 421.943 1505.02 L 423.286 1502.86 z"/>
<path transform="translate(0,0)" fill="rgb(255,255,255)" d="M 761.963 1112.69 C 768.032 1113.31 775.232 1114.7 781.326 1115.8 C 832.482 1125.06 883.844 1127.27 935.493 1131.1 L 932.528 1144.94 C 883.72 1145.41 806.864 1140.19 758.573 1130.62 C 759.963 1125.32 760.998 1118.24 761.963 1112.69 z"/>
<path transform="translate(0,0)" fill="rgb(255,104,8)" d="M 640.193 928.509 C 681.583 951.204 701.747 958.843 746.073 974.759 C 746.821 985.737 747.448 993.017 749.247 1003.97 C 706.507 990.396 676.026 975.209 638.96 949.791 L 640.193 928.509 z"/>
<path transform="translate(0,0)" fill="rgb(255,255,255)" d="M 447.833 603.996 L 448.4 604.699 C 447.148 620.634 440.591 646.631 438.346 664.738 C 414.027 688.036 406.198 697.693 386.196 725.093 L 385.642 724.477 C 384.728 717.089 390.411 677.041 391.213 666.938 C 407.479 643.751 426.49 622.617 447.833 603.996 z"/>
<path transform="translate(0,0)" fill="rgb(255,255,255)" d="M 437.208 977.555 C 443.885 981.439 453.891 989.414 461.49 994.09 C 469.003 998.713 480.837 1004.43 487.121 1008.72 C 523.244 1033.39 555.422 1050.94 596.219 1066.53 C 594.16 1069.65 592.75 1073.24 591.238 1076.68 C 590.427 1079.21 591.239 1078.29 589.064 1079.7 C 546.776 1066.48 471.82 1021.47 436.885 994.625 C 436.879 989.038 437.088 983.166 437.208 977.555 z"/>
<path transform="translate(0,0)" fill="rgb(255,255,255)" d="M 606.82 1071.28 C 657.786 1088.12 693.258 1096.57 743.887 1109.7 L 739.657 1125.74 C 726.542 1128.04 621.647 1093.42 603.755 1086.85 C 604.34 1079.35 604.567 1078.21 606.82 1071.28 z"/>
<path transform="translate(0,0)" fill="rgb(255,255,255)" d="M 1428.48 1624.42 C 1498.35 1603.64 1595.12 1582.8 1664.81 1610.54 C 1666.84 1611.07 1667.31 1611.14 1669.09 1612.22 L 1669.2 1612.5 C 1668.12 1613.67 1662.2 1612.75 1660.76 1612.48 C 1583.76 1605.6 1506.16 1610.34 1430.57 1626.53 L 1428.48 1624.42 z"/>
<path transform="translate(0,0)" fill="rgb(195,195,198)" d="M 1664.81 1610.54 C 1666.84 1611.07 1667.31 1611.14 1669.09 1612.22 L 1669.2 1612.5 C 1668.12 1613.67 1662.2 1612.75 1660.76 1612.48 L 1664.81 1610.54 z"/>
<path transform="translate(0,0)" fill="rgb(255,104,8)" d="M 642.098 857.837 L 642.412 854.505 C 644.567 855.61 643.73 855.359 645.312 858.183 C 659.34 891.408 692.725 917.364 723.517 934.159 C 729.334 937.331 748.084 943.819 747.331 951.084 C 735.082 953.657 655.333 910.744 641.215 902.58 C 641.629 887.668 641.924 872.753 642.098 857.837 z"/>
<path transform="translate(0,0)" fill="rgb(255,104,8)" d="M 1327.22 872.13 L 1329.56 875.019 C 1296.77 903.587 1260.26 926.303 1222.83 948.297 C 1222.93 941.097 1222.95 933.896 1222.9 926.695 C 1259.2 911.586 1294.11 893.328 1327.22 872.13 z"/>
<path transform="translate(0,0)" fill="rgb(255,255,255)" d="M 1066.66 597.44 C 1083.84 609.365 1100.09 620.825 1112.09 638.196 C 1109.16 639.332 1106.77 639.883 1103.61 641.206 C 1093.42 645.383 1075.63 646.436 1064.43 646.825 C 1061.67 646.921 1064.11 641.118 1064.45 640.246 C 1064.74 637.7 1064.92 635.54 1065.13 633.002 C 1066.14 621.175 1066.66 609.31 1066.66 597.44 z"/>
<path transform="translate(0,0)" fill="rgb(255,104,8)" d="M 1103.61 641.206 C 1093.42 645.383 1075.63 646.436 1064.43 646.825 C 1061.67 646.921 1064.11 641.118 1064.45 640.246 C 1069.66 641.668 1093.05 639.42 1103.61 641.206 z"/>
<path transform="translate(0,0)" fill="rgb(255,255,255)" d="M 367.678 708.3 L 369.686 704.52 C 370.813 706.227 369.706 712.587 369.381 714.962 C 368.547 724.134 366.694 751.212 363.589 758.677 C 354.969 779.401 335.895 807.896 331.654 830.345 L 329.479 828.821 C 338.837 782.664 344.838 751.551 367.678 708.3 z"/>
<path transform="translate(0,0)" fill="rgb(255,255,255)" d="M 1758.14 1207.13 L 1760.34 1207.99 C 1750.68 1281.31 1741.67 1361.25 1738.09 1435.44 C 1737.7 1440.3 1736.91 1447.4 1737.06 1452.09 L 1735.05 1452.87 L 1734.95 1436.21 C 1733.89 1355.53 1743.48 1286.34 1758.14 1207.13 z"/>
<path transform="translate(0,0)" fill="rgb(255,255,255)" d="M 954.715 1130.99 C 997.666 1131.4 1040.62 1130.3 1083.49 1127.7 L 1082.03 1130.03 C 1038.94 1137.95 995.312 1142.64 951.518 1144.06 L 954.715 1130.99 z"/>
<path transform="translate(0,0)" fill="rgb(255,255,255)" d="M 1675.79 907.078 L 1677.32 907.528 C 1676.78 911.044 1672.38 916.812 1670.22 920.076 C 1638.91 929.016 1602.62 941.085 1571.22 950.89 L 1569.68 950.793 L 1569.88 949.931 C 1605.64 931.936 1637.81 919.725 1675.79 907.078 z"/>
<path transform="translate(0,0)" fill="rgb(255,255,255)" d="M 1783.02 879.457 L 1783.7 881.809 C 1761.39 890.557 1738.55 897.115 1715.93 904.93 C 1708.84 907.378 1701.24 910.075 1694 911.955 L 1690.41 912.864 C 1691.4 909.191 1692.43 905.536 1693.32 901.835 L 1694.78 901.313 C 1704.42 897.765 1720.28 893.719 1730.53 891.283 L 1734.55 890.324 L 1739.01 889.287 L 1743.51 888.263 C 1752.31 886.291 1761.23 884.14 1770.01 882.249 L 1783.02 879.457 z"/>
<path transform="translate(0,0)" fill="rgb(255,104,8)" d="M 894.964 972.026 C 859.541 973.078 828.602 973.994 793.779 964.512 C 786.782 962.606 767.818 959.787 763.418 955.152 L 763.524 952.443 C 765.916 950.86 781.738 956.651 786.395 957.778 C 821.6 966.301 859.034 970.117 895.166 969.986 L 894.964 972.026 z"/>
<path transform="translate(0,0)" fill="rgb(255,255,255)" d="M 1443.13 568.657 C 1458.68 604.188 1461.5 621.704 1460.93 660.576 C 1460.15 659.765 1454.91 654.732 1454.88 653.949 C 1453.99 626.576 1451.2 596.445 1441.66 570.443 L 1443.13 568.657 z"/>
<path transform="translate(0,0)" fill="rgb(255,255,255)" d="M 1098.7 588.665 C 1108.82 590.11 1135.13 601.129 1140.85 610.969 C 1142.38 613.596 1139.66 620.045 1138.41 622.685 C 1136.02 624.417 1135.21 626.215 1132.93 623.55 C 1122.04 610.821 1111.89 599.141 1098.7 588.665 z"/>
<path transform="translate(0,0)" fill="rgb(255,255,255)" d="M 1143.66 561.465 C 1153.38 565.862 1163.59 569.497 1173.83 574.164 C 1174.53 578.76 1174.97 582.626 1175.54 587.2 C 1167.85 581.004 1160.34 575.988 1152.56 570.068 C 1149.38 567.654 1146.07 565.432 1142.63 563.413 L 1143.66 561.465 z"/>
<path transform="translate(0,0)" fill="rgb(146,146,150)" d="M 1025.47 376.103 C 1032.59 375.649 1041.15 377.216 1049.66 376.916 L 1052.14 379.033 C 1040.92 378.711 1029.61 379.288 1018.46 378.898 C 1021.22 378.371 1027.58 378.904 1025.47 376.103 z"/>
<path transform="translate(0,0)" fill="rgb(200,46,4)" d="M 1327.22 872.13 C 1331.67 868.563 1341.34 862.801 1346.31 859.637 C 1341.15 865.588 1335.45 869.846 1329.56 875.019 L 1327.22 872.13 z"/>
<path transform="translate(0,0)" fill="rgb(195,195,198)" d="M 310.404 1179.84 C 309.018 1172.41 307.247 1164.01 307.514 1156.52 C 308.992 1162.17 312.018 1170.17 312.69 1175.6 L 310.404 1179.84 z"/>
<path transform="translate(0,0)" fill="rgb(146,146,150)" d="M 1735.05 1452.87 L 1737.06 1452.09 C 1737.18 1457.52 1736.83 1461.93 1736.45 1467.32 C 1736.7 1468.79 1736.93 1470.79 1735.75 1471.95 L 1735.57 1471.95 C 1735.12 1471.48 1735.16 1470.55 1735.07 1470 C 1735.31 1464.03 1734.67 1458.57 1735.05 1452.87 z"/>
<path transform="translate(0,0)" fill="rgb(56,54,56)" d="M 1735.07 1470 C 1735.3 1468.37 1735.26 1468.5 1736.45 1467.32 C 1736.7 1468.79 1736.93 1470.79 1735.75 1471.95 L 1735.57 1471.95 C 1735.12 1471.48 1735.16 1470.55 1735.07 1470 z"/>
<path transform="translate(0,0)" fill="rgb(146,146,150)" d="M 1413.55 1627.9 C 1418.88 1627.13 1423.05 1625.43 1428.48 1624.42 L 1430.57 1626.53 C 1425.85 1627.43 1421.36 1627.99 1416.84 1629.61 L 1413.55 1627.9 z"/>
<path transform="translate(0,0)" fill="rgb(146,146,150)" d="M 1409.99 1591.89 C 1417.11 1589.71 1421.6 1589.45 1428.73 1589.03 C 1426.08 1589.8 1424.28 1590.5 1421.53 1591.2 L 1417.52 1592.24 C 1415.12 1592.86 1414.49 1593.07 1411.95 1593.5 L 1410.79 1593.7 L 1409.99 1591.89 z"/>
<path transform="translate(0,0)" fill="rgb(195,195,198)" d="M 466.188 1492.14 L 472.191 1499.9 C 474.217 1502.48 476.4 1505.7 478.308 1508.41 C 472.762 1503.25 469.376 1500.26 464.601 1494.21 L 466.188 1492.14 z"/>
<path transform="translate(0,0)" fill="rgb(195,195,198)" d="M 1760.33 1195.12 L 1762.31 1195.05 C 1761.98 1197.71 1761.11 1205.83 1760.34 1207.99 L 1758.14 1207.13 C 1758.85 1203.18 1759.68 1199.05 1760.33 1195.12 z"/>
<path transform="translate(0,0)" fill="rgb(146,146,150)" d="M 1783.02 879.457 C 1787.03 877.869 1792.55 877.33 1796.92 876.228 C 1798.09 875.946 1799.26 875.685 1800.44 875.447 C 1795.07 877.883 1789.45 880.415 1783.7 881.809 L 1783.02 879.457 z"/>
<path transform="translate(0,0)" fill="rgb(195,195,198)" d="M 469.658 556.241 C 474.251 551.99 478.019 548.73 482.821 544.727 L 485.424 546.352 C 480.346 549.924 475.084 553.225 469.658 556.241 z"/>
<path transform="translate(0,0)" fill="rgb(85,85,87)" d="M 1763.46 1180.15 C 1763.75 1185.15 1763.36 1190.16 1762.31 1195.05 L 1760.33 1195.12 C 1761.23 1187.63 1761.64 1187.41 1763.46 1180.15 z"/>
<path transform="translate(0,0)" fill="rgb(195,195,198)" d="M 416.344 1494.41 C 418.658 1497.34 420.808 1500.05 423.286 1502.86 L 421.943 1505.02 C 419.891 1502.36 418.11 1499.71 416.018 1497.1 L 416.344 1494.41 z"/>
<path transform="translate(0,0)" fill="rgb(146,146,150)" d="M 668.57 1697.02 L 669.953 1697.62 C 671.151 1698.11 676.148 1700.24 676.502 1701.48 C 675.652 1702.71 668.132 1699.03 666.957 1698.49 L 666.586 1698.32 L 668.57 1697.02 z"/>
<path transform="translate(0,0)" fill="rgb(113,32,14)" d="M 895.166 969.986 C 896.732 969.941 907.98 969.79 908.962 970.47 C 908.197 970.699 907.302 970.697 906.5 970.755 C 904.752 970.881 904.624 970.772 903.155 971.603 C 900.18 971.846 897.932 971.991 894.964 972.026 L 895.166 969.986 z"/>
<path transform="translate(0,0)" fill="rgb(85,85,87)" d="M 1049.66 376.916 C 1054.2 377.011 1058.75 377.234 1063.15 378.509 C 1061.93 379.091 1053.75 379.061 1052.14 379.033 L 1049.66 376.916 z"/>
<path transform="translate(0,0)" fill="rgb(195,195,198)" d="M 1083.49 1127.7 C 1086.21 1126.93 1088.56 1126.88 1091.37 1126.53 L 1089.02 1128.99 C 1086.68 1129.3 1084.36 1129.65 1082.03 1130.03 L 1083.49 1127.7 z"/>
<path transform="translate(0,0)" fill="rgb(85,85,87)" d="M 408.243 1486.28 C 411.334 1488.82 414.066 1491.03 416.344 1494.41 L 416.018 1497.1 C 413.236 1493.44 410.853 1490.06 408.243 1486.28 z"/>
<path transform="translate(0,0)" fill="rgb(85,85,87)" d="M 1091.37 1126.53 C 1093.24 1126.15 1094.67 1125.92 1096.6 1125.82 L 1097.04 1126.86 L 1098.17 1126.07 C 1098.25 1126.17 1098.34 1126.28 1098.43 1126.38 C 1098.41 1127.92 1089.83 1128.86 1089.02 1128.99 L 1091.37 1126.53 z"/>
<path transform="translate(0,0)" fill="rgb(146,146,150)" d="M 731.802 1682.43 C 734.489 1683.3 736.43 1683.91 739.184 1684.57 L 737.742 1686.52 C 734.828 1685.42 733.478 1684.91 730.458 1684.05 L 731.802 1682.43 z"/>
<path transform="translate(0,0)" fill="rgb(146,146,150)" d="M 1441.66 570.443 C 1441.31 569.388 1438.84 563.42 1439.64 562.647 L 1439.89 562.663 L 1439.78 563.21 C 1441.63 564.497 1441.48 564.812 1442.44 567.107 L 1443.13 568.657 L 1441.66 570.443 z"/>
<path transform="translate(0,0)" fill="rgb(146,146,150)" d="M 329.479 828.821 L 331.654 830.345 L 331.497 830.796 C 331.284 831.428 330.271 835.108 329.392 835.182 C 328.543 833.871 329.253 830.183 329.479 828.821 z"/>
<path transform="translate(0,0)" fill="rgb(56,54,56)" d="M 1416.84 1629.61 C 1416.12 1629.72 1410.47 1630.96 1410.44 1629.3 C 1411.4 1628.36 1412.18 1628.3 1413.55 1627.9 L 1416.84 1629.61 z"/>
<path transform="translate(0,0)" fill="rgb(195,195,198)" d="M 1142.63 563.413 C 1141.88 562.945 1138.7 561.399 1138.51 560.532 C 1139.37 559.71 1142.61 561.132 1143.66 561.465 L 1142.63 563.413 z"/>
<path transform="translate(0,0)" fill="rgb(85,85,87)" d="M 730.458 1684.05 C 725.997 1681.74 728.891 1681.72 731.802 1682.43 L 730.458 1684.05 z"/>
</svg>